<svg width="40" height="40" viewBox="0 0 40 40" fill="none" xmlns="http://www.w3.org/2000/svg">
<g clip-path="url(#clip0_55565_7843)">
<rect width="40" height="40" rx="20" fill="black"/>
<path d="M13.8702 17.1859L19.5028 11.5556L25.1376 17.1905L28.4131 13.9127L19.5028 5L10.5924 13.9104L13.8702 17.1859Z" fill="#F3BA2F"/>
<path d="M5 19.501L8.27663 16.2244L11.5533 19.501L8.27663 22.7776L5 19.501Z" fill="#F3BA2F"/>
<path d="M13.8705 21.8153L19.5031 27.4478L25.1379 21.813L28.4157 25.0862L28.4134 25.0885L19.5031 34.0012L10.5927 25.0931L10.5881 25.0885L13.8705 21.8153Z" fill="#F3BA2F"/>
<path d="M27.4468 19.502L30.7234 16.2253L34 19.502L30.7234 22.7786L27.4468 19.502Z" fill="#F3BA2F"/>
<path d="M22.8264 19.4993L19.5028 16.1733L17.045 18.6311L16.761 18.9129L16.1791 19.4947L16.1746 19.4993L16.1791 19.5061L19.5028 22.8275L22.8264 19.5016L22.8287 19.4993H22.8264Z" fill="#F3BA2F"/>
</g>
<defs>
<clipPath id="clip0_55565_7843">
<rect width="40" height="40" fill="white"/>
</clipPath>
</defs>
</svg>
