<svg width="40" height="40" viewBox="0 0 40 40" fill="none" xmlns="http://www.w3.org/2000/svg">
<g clip-path="url(#clip0_55565_7854)">
<rect width="40" height="40" rx="20" fill="black"/>
<g clip-path="url(#clip1_55565_7854)">
<path d="M26.3699 22.9673V14.9019H27.9911V22.9673H26.3699Z" fill="#F7A600"/>
<path d="M7.47554 25.3628H4V17.2974H7.33593C8.95717 17.2974 9.90164 18.1812 9.90164 19.5629C9.90164 20.4576 9.29484 21.0359 8.87492 21.2285C9.37638 21.4547 10.0178 21.9645 10.0178 23.041C10.0178 24.5472 8.95717 25.3628 7.47554 25.3628ZM7.2075 18.7022H5.62125V20.5601H7.20714C7.8951 20.5601 8.28003 20.1863 8.28003 19.6307C8.28003 19.0763 7.89546 18.7022 7.2075 18.7022ZM7.31212 21.976H5.62161V23.9588H7.31284C8.0477 23.9588 8.39692 23.5056 8.39692 22.9616C8.39692 22.418 8.04698 21.976 7.31284 21.976H7.31212ZM14.9627 22.0554V25.3628H13.353V22.0554L10.8569 17.2974H12.6181L14.1694 20.5485L15.6972 17.2974H17.4581L14.9627 22.0554ZM22.0545 25.3628H18.5789V17.2974H21.9145C23.5358 17.2974 24.4806 18.1812 24.4806 19.5629C24.4806 20.4576 23.8738 21.0359 23.4539 21.2285C23.9553 21.4547 24.5968 21.9645 24.5968 23.041C24.5968 24.5472 23.5361 25.3628 22.0545 25.3628ZM21.7864 18.7022H20.2002V20.5601H21.7864C22.4744 20.5601 22.8593 20.1863 22.8593 19.6307C22.8593 19.0763 22.4744 18.7022 21.7864 18.7022ZM21.8911 21.976H20.1998V23.9588H21.8911C22.6263 23.9588 22.9755 23.5056 22.9755 22.9616C22.9755 22.418 22.6263 21.976 21.8911 21.976ZM33.2163 18.7025V25.3635H31.5951V18.7022H29.4262V17.2974H35.3859V18.7022L33.2163 18.7025Z" fill="white"/>
</g>
</g>
<defs>
<clipPath id="clip0_55565_7854">
<rect width="40" height="40" fill="white"/>
</clipPath>
<clipPath id="clip1_55565_7854">
<rect width="31.3859" height="12.2656" fill="white" transform="translate(4 14)"/>
</clipPath>
</defs>
</svg>
