<svg width="40" height="40" viewBox="0 0 40 40" fill="none" xmlns="http://www.w3.org/2000/svg">
<g clip-path="url(#clip0_55565_7832)">
<rect width="40" height="40" rx="20" fill="white"/>
<path d="M23.1595 15.8242H16.3661C16.0777 15.8242 15.8413 16.0609 15.8413 16.3495V23.1501C15.8413 23.4388 16.0777 23.6755 16.3661 23.6755H23.1595C23.4479 23.6755 23.6842 23.4388 23.6842 23.1501V16.3495C23.6842 16.0609 23.4479 15.8242 23.1595 15.8242Z" fill="black"/>
<path d="M15.3183 8H8.52489C8.23652 8 8.00012 8.23665 8.00012 8.52532V15.3259C8.00012 15.6146 8.23652 15.8512 8.52489 15.8512H15.3183C15.6067 15.8512 15.8431 15.6146 15.8431 15.3259V8.52532C15.8414 8.23665 15.6067 8 15.3183 8Z" fill="black"/>
<path d="M30.9753 8H24.1819C23.8935 8 23.6571 8.23665 23.6571 8.52532V15.3259C23.6571 15.6146 23.8935 15.8512 24.1819 15.8512H30.9753C31.2636 15.8512 31.5 15.6146 31.5 15.3259V8.52532C31.5 8.23665 31.2636 8 30.9753 8Z" fill="black"/>
<path d="M15.3184 23.6484H8.52501C8.23664 23.6484 8.00024 23.8851 8.00024 24.1738V30.9744C8.00024 31.263 8.23664 31.4997 8.52501 31.4997H15.3184C15.6068 31.4997 15.8432 31.263 15.8432 30.9744V24.1738C15.8415 23.8851 15.6068 23.6484 15.3184 23.6484Z" fill="black"/>
<path d="M30.9753 23.6484H24.1819C23.8935 23.6484 23.6571 23.8851 23.6571 24.1738V30.9744C23.6571 31.263 23.8935 31.4997 24.1819 31.4997H30.9753C31.2636 31.4997 31.5 31.263 31.5 30.9744V24.1738C31.5 23.8851 31.2636 23.6484 30.9753 23.6484Z" fill="black"/>
</g>
<defs>
<clipPath id="clip0_55565_7832">
<rect width="40" height="40" fill="white"/>
</clipPath>
</defs>
</svg>
